<?xml version="1.0" encoding="UTF-8"?>
<svg width="14px" height="14px" viewBox="0 0 14 14" version="1.1" xmlns="http://www.w3.org/2000/svg" xmlns:xlink="http://www.w3.org/1999/xlink">
    <title>icon/check备份</title>
    <g id="icon/check备份" stroke="none" stroke-width="1" fill="none" fill-rule="evenodd">
        <path d="M12,0 C13.1045695,0 14,0.8954305 14,2 L14,12 C14,13.1045695 13.1045695,14 12,14 L2,14 C0.8954305,14 0,13.1045695 0,12 L0,2 C0,0.8954305 0.8954305,0 2,0 L12,0 Z M12,1 L2,1 C1.48716416,1 1.06449284,1.38604019 1.00672773,1.88337887 L1,2 L1,12 C1,12.5128358 1.38604019,12.9355072 1.88337887,12.9932723 L2,13 L12,13 C12.5128358,13 12.9355072,12.6139598 12.9932723,12.1166211 L13,12 L13,2 C13,1.48716416 12.6139598,1.06449284 12.1166211,1.00672773 L12,1 Z M10.8553733,3.9099115 L10.9246212,3.96776695 C11.0981876,4.1413333 11.1174727,4.41075771 10.9824767,4.60562585 L10.9246212,4.67487373 L5.62132034,9.97817459 L3.14644661,7.50330086 C2.95118446,7.30803871 2.95118446,6.99145622 3.14644661,6.79619408 C3.32001296,6.62262773 3.58943736,6.60334258 3.7843055,6.73833863 L3.85355339,6.79619408 L5.62056529,8.56396103 L10.2175144,3.96776695 C10.3910808,3.7942006 10.6605052,3.77491545 10.8553733,3.9099115 Z" id="形状" fill="#17C09D" fill-rule="nonzero"></path>
    </g>
</svg>