<?xml version="1.0" encoding="utf-8"?>
<!-- Generator: Adobe Illustrator 23.0.1, SVG Export Plug-In . SVG Version: 6.00 Build 0)  -->
<svg version="1.1" id="图层_1" xmlns="http://www.w3.org/2000/svg" xmlns:xlink="http://www.w3.org/1999/xlink" x="0px" y="0px"
	 viewBox="0 0 18 18" style="enable-background:new 0 0 18 18;" xml:space="preserve">
<style type="text/css">
	.st0{display:none;}
</style>
<path class="st0" d="M9,0C4,0,0,4,0,9s4,9,9,9s9-4,9-9S14,0,9,0z M14.4,6.4l-6.2,6.2c-0.1,0.1-0.3,0.2-0.5,0.2c0,0,0,0,0,0
	c-0.2,0-0.4-0.1-0.5-0.2L3.6,9C3.3,8.7,3.3,8.3,3.6,8c0.3-0.3,0.8-0.3,1.1,0l3,3.1l5.6-5.7c0.3-0.3,0.8-0.3,1.1,0S14.7,6.1,14.4,6.4
	z"/>
<path d="M9,0C4,0,0,4,0,9s4,9,9,9s9-4,9-9S14,0,9,0z M9,17c-4.4,0-8-3.6-8-8s3.6-8,8-8s8,3.6,8,8S13.4,17,9,17z"/>
</svg>
