<?xml version="1.0" encoding="utf-8"?>
<!-- Generator: Adobe Illustrator 23.0.1, SVG Export Plug-In . SVG Version: 6.00 Build 0)  -->
<svg version="1.1" id="图层_1" xmlns="http://www.w3.org/2000/svg" xmlns:xlink="http://www.w3.org/1999/xlink" x="0px" y="0px"
	 viewBox="0 0 14 14" style="enable-background:new 0 0 14 14;" xml:space="preserve">
<style type="text/css">
	.st0{display:none;}
	.st1{display:inline;}
</style>
<path d="M12,0H2C0.9,0,0,0.9,0,2v10c0,1.1,0.9,2,2,2h10c1.1,0,2-0.9,2-2V2C14,0.9,13.1,0,12,0z M13,12c0,0.6-0.4,1-1,1H2
	c-0.6,0-1-0.4-1-1V2c0-0.6,0.4-1,1-1h10c0.6,0,1,0.4,1,1V12z"/>
<g>
	<g class="st0">
		<path class="st1" d="M5.6,9.8c-0.1,0-0.3-0.1-0.4-0.2L2.8,7.1c-0.2-0.2-0.2-0.5,0-0.7c0.2-0.2,0.5-0.2,0.7,0l2.1,2.1l5-5
			c0.2-0.2,0.5-0.2,0.7,0c0.2,0.2,0.2,0.5,0,0.7L5.9,9.6C5.8,9.7,5.7,9.8,5.6,9.8z"/>
	</g>
</g>
</svg>
